<svg width="120" height="30" viewBox="0 0 80 15" fill="none" xmlns="http://www.w3.org/2000/svg">
    <path fill-rule="evenodd" clip-rule="evenodd" d="M1.53318 14.3326H9.95051V14.3288C10.7968 14.3288 11.4837 13.6401 11.4837 12.7917C11.4837 11.9432 10.7981 11.2546 9.95051 11.2546H3.06763V1.54129C3.06763 0.692855 2.38073 0.00421143 1.53445 0.00421143C0.686896 0.00421143 0 0.694124 0 1.54256V12.7955C0 13.6439 0.686896 14.3326 1.53318 14.3326ZM19.2382 7.16839C19.2382 4.91096 21.0636 3.08091 23.3153 3.08091C25.5478 3.08343 27.3608 4.88326 27.392 7.11466C27.3914 7.13209 27.3911 7.14958 27.3911 7.16715C27.3911 7.1854 27.3914 7.20359 27.392 7.22169C27.3636 9.45456 25.5492 11.2559 23.3153 11.2559C21.0636 11.2559 19.2382 9.42582 19.2382 7.16839ZM30.2931 8.7055C29.588 11.9201 26.7328 14.3256 23.3153 14.33V14.3326C19.3697 14.3326 16.1705 11.1252 16.1705 7.16966C16.1705 3.21281 19.3697 0.00421143 23.3153 0.00421143C26.7345 0.00421143 29.5933 2.41299 30.2951 5.63007H36.8442C37.5469 2.41369 40.4051 0.00421143 43.8235 0.00421143C47.769 0.00421143 50.9682 3.21154 50.9682 7.16712C50.9631 11.1214 47.7677 14.325 43.8235 14.33V14.3326C40.4038 14.3326 37.5447 11.9232 36.8434 8.7055H30.2931ZM39.7476 7.16715C39.7476 7.18516 39.7473 7.2031 39.7467 7.22096C39.7748 9.45417 41.5893 11.2559 43.8235 11.2559C46.0752 11.2559 47.9006 9.42582 47.9006 7.16839C47.898 4.91223 46.0739 3.08345 43.8235 3.08091C41.5899 3.08091 39.7757 4.88167 39.7467 7.11407C39.7473 7.13169 39.7476 7.14938 39.7476 7.16715ZM62.8656 13.8773C63.1509 14.1671 63.5407 14.3319 63.9472 14.3326L63.9446 14.3326H63.9497L63.9472 14.3326C64.3409 14.3319 64.7194 14.1798 65.0034 13.9064L70.615 8.54441C70.9186 8.25399 71.0919 7.85196 71.0919 7.43091V1.54256C71.0906 0.692855 70.405 0.00421143 69.5574 0.00421143C68.7099 0.00421143 68.0217 0.692855 68.0217 1.54256V6.77017L63.9699 10.6433L59.8662 6.53048V1.54129C59.8662 0.692855 59.1794 0.00421143 58.3331 0.00421143C57.4868 0.00421143 56.7999 0.694124 56.8011 1.54256V7.16966C56.8024 7.57803 56.9656 7.96864 57.2553 8.25652L62.8656 13.8773ZM78.4643 14.3326C77.6167 14.3326 76.9311 13.6439 76.9311 12.7955V1.54256C76.9311 0.692855 77.618 0.00421143 78.4655 0.00421143C79.3131 0.00421143 80 0.692855 80 1.54256V12.7942C80 13.6439 79.3118 14.3326 78.4643 14.3313V14.3326Z" fill="#ffffff"/>
</svg>
